<svg id="Layer_1" data-name="Layer 1" xmlns="http://www.w3.org/2000/svg" viewBox="0 0 1352.46 302.05"><title>LastName</title><path d="M1178.2,536.56c1.69-23.88,7.29-43,18.7-60.12,2.16-3.24,5.62-5.61,8.48-8.38,6.91-6.7,12.79-15.31,20.94-19.71,17.2-9.29,36.26-11.13,55-4.56,3.79,1.33,5.49,8.39,8.34,12.69,1.5,2.27,3.41,4.26,5.14,6.38l2.2-2.93a35.64,35.64,0,0,0,3,3.68c1.1,1,2.75,1.58,3.67,2.73,2.57,3.23,4.93,6.63,7.28,10,7.7,11.15,15.43,22.27,23,33.51,7.22,10.72,14.77,21.28,21.18,32.48,4.31,7.52,6.77,16.09,10.35,24.06.56,1.26,2.77,1.72,4.1,2.71a9.76,9.76,0,0,1,1.61,2c-.88-.25-1.79-.43-2.65-.75-2.68-1-5.34-2-8-3-.25-.09-.59.06-.88.1a3,3,0,0,0,.24.64c.61.92,1.25,1.83,1.88,2.74a21.84,21.84,0,0,0-3-.75,23.41,23.41,0,0,0-3.13,0c1.32,1.8,2.68,3.58,3.94,5.43a35.29,35.29,0,0,1,1.72,3.13l-6-2.4-6.84-2.7c.88,1.44,1.76,2.88,2.62,4.34a3.93,3.93,0,0,1,.27.83l-1.81-.21-7.18-.73c1.2,1,2.44,1.9,3.57,2.94.19.18,0,1.19-.07,1.19-5.65-.1-11.71,1-16.83-.75-5.71-1.92-11.89-5.34-15.51-10-7.28-9.29-13-19.84-19.34-29.84a29.62,29.62,0,0,0-2.52-3c-.4,1-.53,2.35-1.25,3.07-7.56,7.55-15.2,15-22.84,22.48-1.72,1.68-3.61,3.19-5.21,5-2,2.24-3.38,5.74-5.85,6.84-9.14,4.05-18.58,10-28,10.19-10.47.17-22-3.5-31.21-8.78-7.05-4.05-11.18-13.2-16.61-20.08-.73-.92-1.92-2.73-2.09-2.64-2.68,1.44-5.22,3.13-7.8,4.76,2.38.61,4.75,1.27,7.15,1.8.47.1,1-.3,1.57-.47-.47.66-.78,1.63-1.42,1.93-4.65,2.23-9.2,5.61-14.07,6.19a269.13,269.13,0,0,1-32.07,1.39c-11.69,0-22.67-9.87-35.28-1.84-2.7,1.72-8.7-.06-12.29-1.93s-5.85-6-8.95-8.89c-2-1.89-2.21-1.66.29-5.18a1.93,1.93,0,0,0-.13-1.77,13.41,13.41,0,0,0-2.9-3.11c-.53-.37-1.64.08-2.48.16.42-1.58.83-3.17,1.27-4.75s1.27-3.07,1.25-4.59c0-3.3-.23-3.29,2.54-2.59.25.06.58-.14.87-.22-.16-.43-.34-.85-.46-1.29-.78-2.7-2.95-6.07-2-8a35.68,35.68,0,0,1,8.29-10.52c3.12-2.86,7.05-4.85,10.65-7.18,3.41-2.21,6.86-4.37,10.3-6.55.16-.1.37-.23.42-.38a25.79,25.79,0,0,1,1.46-4.71c.31-.58,1.88-.36,2.59-.89,2.58-1.91,5.08-3.94,7.53-6,7.51-6.31,14.95-12.7,22.49-19a53.27,53.27,0,0,1,5.43-3.53c-3-.73-5.95-2-8.95-2.08-10.29-.36-20.61-.62-30.88-.21-2.31.09-4.52,3-6.74,4.7-.31.23-.48,1.05-.62,1-.66-.1-1.29-.64-1.92-.61a60.57,60.57,0,0,0-8,.7c-1.64.3-4,2.3-4.58,1.8-2.3-1.88-4.71-4.19-5.83-6.86a172.54,172.54,0,0,1-5.77-17.54c-.32-1.08.15-2.49.51-3.67s1.35-2.51,1.61-3.85a21.69,21.69,0,0,0,0-4.39c2.09.39,4.19,1.18,6.26,1.09,4.37-.17,8.72-1.15,13.08-1.18,23.61-.21,47.22-.61,70.82-.07,6.88.16,13.78,2.91,20.5,5,2.58.81,4.74,3.07,6.87,4.93.18.16-1.44,2.28-2.13,3.53s-1.77,2.47-1.61,3.54c.4,2.62,2.45,5.35,2,7.66-.77,3.79-3,7.3-4.65,10.89a50.92,50.92,0,0,1-3.88,7.31c-.28.4-2.47-.42-3.74-.83-.49-.16-.86-.71-1.28-1.09-.16.25-.3.51-.48.74-1.74,2.24-3.23,4.74-5.27,6.65-6.26,5.85-12.46,11.82-19.19,17.09-8.32,6.51-17.13,12.38-25.76,18.5-3.4,2.41-6.76,4.91-10.34,7-1.34.79-3.66.1-4.79,1-1.67,1.35-2.68,3.52-4,5.35,3,.91,6,2.52,9.05,2.6,17.84.52,35.69.61,53.53,1.06,2,.05,4.14,2.23,6,2C1175,538.78,1177.34,537,1178.2,536.56Zm78-51.73c-4.4.75-5.46.76-6.39,1.11-11.82,4.54-20,13.06-24.77,24.48-4,9.49-8.55,19.46-.29,29.12,1.26,1.47,4.58,3.13,5.68,2.49,9.09-5.24,19.51-9.51,26.33-17,7.09-7.79,10.85-18.72,15.27-28.63.41-.92,11.85-13.09-4.1-8.56a2,2,0,0,1-.94-.16Zm-86.8,65.1c2.73.81,4.59,1.82,6.37,1.72,1-.06,2.57-1.91,2.67-3.05.12-1.46-1-3-1.56-4.55Zm49.69-39.35,1.47.2c.13-.32.26-.64.38-1,1.61-4.27,3-8.63,4.91-12.76.74-1.6,2.61-2.69,4-4-.31-.3-.88-.88-.89-.88-2,1.9-4,3.75-5.81,5.81a16.44,16.44,0,0,0-1.71,3.34A11.48,11.48,0,0,0,1220,504C1219.55,506.15,1219.4,508.38,1219.13,510.58Zm60.4,39.38.31,1.47c.22-.07.54-.08.66-.23,2-2.71,4-5.43,6-8.19.17-.23,0-.83-.24-1.18a.92.92,0,0,0-.84,0C1283.37,544.57,1281.39,547.36,1279.53,550Zm-198.61,9.51L1083,558c.34-.94,1.25-2.35.93-2.73a17,17,0,0,0-3.56-2.59c.1,1.35.19,2.69.3,4C1080.74,557.63,1080.84,558.55,1080.92,559.47Z" transform="translate(-252.09 -325.26)" fill="#7ececc" stroke="#b6b6b6" stroke-miterlimit="10"/><path d="M252.63,524.36c2.35-14,3.94-24.63,6-35.22,2.74-14.27,5.43-28.56,8.9-42.66a212.4,212.4,0,0,1,9.33-28.62C282.43,404,288.08,390.1,295.13,377a193.67,193.67,0,0,1,21.25-31.09c2.55-3.1,9-2.95,13.69-4.36.44-.13.83-.74,1.05-1.21s.11-1.07.32-1.53a1.08,1.08,0,0,1,1-.1c4.69,4.25,9.38,8.5,14,12.88.59.56.31,2,.82,2.7,1.16,1.7,2.56,3.24,3.87,4.85,3-4.24,6.75-8.15,8.89-12.79,7-15.29,21-24.62,36.35-18.85,7.37,2.77,13.93,13.87,16.29,22.46,4.32,15.68,5.71,32.25,7.47,48.54,1.42,13.25,1.71,26.64,2.26,40,.31,7.31.81,14.71,0,21.93-1.5,13.78-3.21,27.61-6.3,41.09-.89,3.87-7.07,6.35-10.39,9.88-2.4,2.56-3.74,6.12-6.2,8.6-1.51,1.53-4.3,1.72-6.37,2.79a6.51,6.51,0,0,0-3,2.77c-.42,1,.3,2.5.52,3.77-5.08.43-14,2.52-14.62,1-4.4-10.09-9.1-20.81-9.83-31.58-1.3-19.11-.15-38.42.57-57.62.44-11.67,2-23.29,3-34.94a44.79,44.79,0,0,0-.15-5.3c-1.35,1.77-3.47,3.37-3.92,5.35-1.7,7.46-2.16,15.26-4.47,22.48-1.4,4.37-4.66,10.13-8.33,11.27-4.33,1.34-10.14-1.2-15-2.83-10.49-3.5-17.41-11-19.27-21.77-1.06-6.12.52-12.69.82-19.06a14.63,14.63,0,0,0-.57-3.24,15.43,15.43,0,0,1-.35,2.5q-6.21,20.2-12.5,40.37c-1.91,6.08-3.76,12.19-6,18.15-1.83,4.86-4.6,9.38-6.22,14.29-3.61,11-7,22-10,33.12-2,7.38-1.39,16.14-5.3,22.1-2.87,4.38-11,6.45-17.08,7.11C258.26,531,254.62,525.92,252.63,524.36Z" transform="translate(-252.09 -325.26)" fill="#7ececc" stroke="#b6b6b6" stroke-miterlimit="10"/><path d="M858,538.16l-1.78-2.44c.11,1.12.61,2.4.24,3.34a7,7,0,0,1-2.49,2.88,17.59,17.59,0,0,1-3.52,1.54l2,.71c-.14.34-.21.91-.43,1-6.15,1.65-12.37,3.06-18.44,4.94-3.86,1.19-7.88,5-11.18,4.29-10.13-2-20-5.37-29.83-8.75-4.44-1.53-10.13-3.31-12.28-6.81a104.79,104.79,0,0,1-10.54-24.4c-2.47-8.14-3.3-16.77-4.83-25.19-.2-1.08-.23-2.19-.34-3.28l-3,4.37c.39.2,1.14.49,1.11.58-1,3.63-2.07,7.23-3.09,10.86a4.4,4.4,0,0,0,0,1.54c.24,2.77.51,5.53.77,8.29-.73-2.59-1.43-5.18-2.2-7.75-.11-.36-.57-.6-.87-.9a5.07,5.07,0,0,0-.86.91c-3,5.37-5.49,11.14-9.18,16-2.62,3.47-6.71,5.93-10.41,8.44a87.1,87.1,0,0,1-11.27,6.44c-5.95,2.85-11.89,5.88-18.14,7.88a196.75,196.75,0,0,1-22.56,5.33c-2.07.4-4.42-.9-6.66-1s-4.5,1.19-6.41.64c-4.9-1.44-9.61-3.55-14.38-5.44-.19-.08-.14-.75-.21-1.15a5.38,5.38,0,0,1,1.55-.17c1,.19,2,.53,3,.77A1.66,1.66,0,0,0,662,541c-1-.71-2.16-2.09-3.06-1.95-6.29,1-5.45-3.25-5.85-7-.08-.78-2.29-1.5-3.62-1.94a18.93,18.93,0,0,0-3.72-.49c1.33-.36,2.69-.63,4-1.11a26.52,26.52,0,0,0,3.05-1.59c-.79-.11-1.76,0-2.32-.38-1.69-1.25-3.21-2.71-4.8-4.09,2.14-.54,4.27-1.12,6.43-1.62,5.32-1.23,10.61-2.74,16-3.54,7-1.06,14.45-.56,21.19-2.5,13.17-3.77,29.18-3.37,36.66-17.27,2.09-3.89-1.17-14.22-5.18-17-6.88-4.84-16.21-6.34-24.64-8.75-4.52-1.29-9.38-1.32-14-2.38-7.87-1.81-15.73-3.74-23.45-6.08a59.78,59.78,0,0,1-13.77-5.74c-7.87-4.79-10.06-25.89-4.46-34.12,2.28-3.36,3.18-7.65,4.7-11.52-.35-.07-1-.29-1-.19-3.2,5.57-6.34,11.18-9.55,16.74-.24.41-1,.88-1.36.77a14.47,14.47,0,0,1-2.55-1.37c1.69-2.51,3.5-4.95,5-7.55,1-1.71,1.09-4.35,2.47-5.39,6.61-5,13.15-10.29,20.47-14,5.14-2.59,11.5-2.75,17.31-4.06a17.51,17.51,0,0,0,2.68-1.07c-.89-.07-1.79-.17-2.68-.21s-1.82,0-2.72,0c.75-.42,1.48-1.14,2.27-1.22q17.43-1.91,34.87-3.66c4.54-.45,9.09-.87,13.65-1,1.54,0,3.09,1,4.68,1.2,2.06.31,4.17.34,6.25.49-2.95-1.37-5.87-2.82-8.86-4.08a18.83,18.83,0,0,0-3.7-.76c1.45-.35,3.1-1.34,4.3-.94,5.19,1.74,11.76,2.6,14.87,6.28,2.39,2.83.84,9.46.13,14.26-.42,2.8-2.41,7.39-4.1,7.57-3.91.43-8.07-1.31-12.12-2.19-7.26-1.57-14.47-4.2-21.77-4.45a64,64,0,0,0-22.28,3.18c-7.41,2.51-15,6.22-20.8,11.29-6.54,5.67-2.76,12,3.93,14.47,11.77,4.4,24,7.73,36.09,11.12,12.52,3.51,25.23,6.37,37.75,9.87,11.36,3.17,18.62,10.76,22,22.06.09.31.46.54.7.81a15.35,15.35,0,0,0,.92-1.37q3.31-6.23,6.58-12.48c-2.77,5.21-5.72,10.35-8.15,15.71-.52,1.14.84,3.15,1.37,4.74a2.88,2.88,0,0,0,.54.72,6.27,6.27,0,0,0,.88-1.11q5.84-12.34,11.61-24.72a6.86,6.86,0,0,0,.26-2.06c-.94.29-2.14.32-2.76.94a46.9,46.9,0,0,0-3.65,4.59c1.36-3,2-6.79,4.2-9,6.42-6.48,13.45-12.34,20.23-18.46.43-.39.81-.84,1.21-1.26-.47.12-.94.27-1.42.36a6.15,6.15,0,0,1-1,0c.35-.57.6-1.53,1.07-1.65,12.88-3.36,25.64-8.05,38.74-9.43,9-.95,18.51,2.51,27.69,4.51,2.25.49,3.95,3.21,6.17,4.42.59.32,2.18-1.19,3.31-1.85a6.41,6.41,0,0,1,.92-.52c.69.91,1.94,1.92,1.87,2.81-.65,8.69-1.51,17.37-2.4,26,0,.38-.86.69-1.34,1,0,0-.43-.29-.43-.46,0-1,.06-2,.1-3-.62.95-1,2.23-1.89,2.77a59.57,59.57,0,0,1-6,3c-.27.13-.53.3-.8.45.19.13.37.35.57.39,1.34.2,2.68.36,4,.53-1.1,2-1.68,5.07-3.38,6-8.29,4.33-16.54,9.69-25.46,11.58-8.28,1.76-17.56.44-26-1.29-3-.62-4.94-6.47-7.51-9.82a3.27,3.27,0,0,0-2.35-.43c-4.47,11.2-11.64,23-4.17,34.47,3.37,5.18,12.24,8.38,19.07,9.36a221.74,221.74,0,0,0,38.83,1.67c10.3-.35,20.52-2.88,30.82-4,1.67-.19,3.59,1.82,5.39,2.82-1.18.6-2.32,1.28-3.54,1.78-5.55,2.28-11.84,3.54-16.48,7-4.43,3.33-7.13,8.94-10.59,13.55Zm-24.34-82.51c-1.08-.51-1.49-.9-1.8-.83q-11.5,2.65-23,5.44c-.27.07-.37.81-.55,1.24.56.22,1.17.7,1.68.61,5.18-.88,10.39-1.65,15.48-2.89C828.16,458.58,830.58,457,833.68,455.65ZM647.92,412.41l10.91-9.16c-.46-.25-1.17-.82-1.34-.69-3.54,2.72-7,5.52-10.46,8.36A11.83,11.83,0,0,0,647.92,412.41Zm153.63,20.74,7.88-3.41c-.71-.13-1.54-.55-2.11-.32-2.36.93-4.65,2-7,3.1Zm54.68,35.78c-.88.81-1.79,1.6-2.6,2.47-.07.08.6,1,.62,1,1.34-.72,2.64-1.5,3.95-2.28Z" transform="translate(-252.09 -325.26)" fill="#7ececc" stroke="#b6b6b6" stroke-miterlimit="10"/><path d="M1430.89,424.35c3.14,19.51,5.33,33.9,7.94,48.22.26,1.44,2.9,3,4.71,3.51,10.29,2.77,22,3,30.64,8.35a81.29,81.29,0,0,1,25.51,25.92c5.76,9.41,7.4,21.46,10.23,32.51a73.26,73.26,0,0,1,2.45,19c0,2.18-4,4.37-6.39,6.37-.44.37-2.17-.52-2.39-.2a37.74,37.74,0,0,0-2.28,4.46c-.69,1.36-1.19,3.48-2.25,3.84-2.15.73-4.64.5-7,.64-.2,0-.58-.3-.6-.27-.35.51-.9,1-.94,1.58-.2,3-.25,6-.4,9a4.33,4.33,0,0,1-.41,1.17c-.48-.27-1-.76-1.45-.77-2.06,0-4.11.07-6.17.15-1.18,0-2.68.64-3.48.13-4.8-3.07-11.51-5.36-13.74-9.83-6.41-12.82-10.85-26.62-16.42-39.88-1-2.34-3.72-4-5.64-5.9-1.32,3.34-2.19,7-4,10-4.21,6.79-7.62,15.16-13.77,19.39-6.77,4.66-16.42,4.94-24.44,8.08-3.24,1.27-5.45,5.11-8.21,7.7-.62.58-2,1.35-2.24,1.15a42.57,42.57,0,0,1-2.86-3.64c-1.8-2.19-3.65-4.33-5.5-6.47-5.11-5.89-12.64-11-14.77-17.84a71.55,71.55,0,0,1-2.34-31.08c1.2-7.95,8-14.89,11.21-22.73,3-7.26,4.45-15.14,6.71-22.7q5.61-18.78,11.38-37.5c1.75-5.72,3.59-11.42,5.38-17.14a.61.61,0,0,0-.06-.38l-3.43-7.88c6.12-.78,13.55-4.11,18.05-1.78C1421.52,413.51,1427.28,421,1430.89,424.35Z" transform="translate(-252.09 -325.26)" fill="#7ececc" stroke="#b6b6b6" stroke-miterlimit="10"/><path d="M498.64,521.19c6.56-1.69,16.7-4.39,26.88-6.9,9.5-2.35,19-4.6,28.59-6.67,2.25-.49,4.7-.1,7.05-.12-3.51,3.06-6.76,6.52-10.59,9.1-5.75,3.87-11.92,7.12-17.9,10.66a.76.76,0,0,0-.19.69c.72,2.11.69,2-4.25,4.22-7.39,3.3-14.8,6.58-22,10.22-2.08,1-3.31,3.9-5.41,4.78-1.21.51-3.33-1.5-5.15-1.91-.57-.13-1.54,1.22-2.22,2-.44.5-.62,1.24-1.07,1.72-.19.2-.8,0-1.22,0,0-.48.29-1.1.08-1.42-.46-.7-1.27-1.84-1.74-1.75-3.11.58-6.16,1.43-9.23,2.2,1.26.33,2.51.74,3.79,1a29.39,29.39,0,0,0,3.2.25c-1.24.42-2.58,1.39-3.69,1.18-10.21-1.92-21.41-2.07-30.27-6.68s-16.82-12.58-22-21c-8.59-13.94-9.73-29.93-4.86-45.93,3.46-11.4,4.86-24.07,10.9-33.89,7.56-12.29,17.16-25.1,29.09-32.5,16.52-10.24,36.81-9.32,55.88-5.86,4.5.82,8.14,6.24,12.24,9.46a5.9,5.9,0,0,0,2.42.7c1.66.33,4.72.42,4.79.93,1,7.25,12.43,11.61,5.27,21.27-4.35,5.87-5.9,14.22-11,19-5.73,5.41-13.81,8.59-21.28,11.81-8.3,3.58-17.06,6.11-25.62,9.12-6.32,2.23-12.95,3.87-18.89,6.87-11.91,6-4.28,15.34-1.64,22C473.95,519.24,478.87,521.22,498.64,521.19ZM468.32,459l1.51,2.2A23.13,23.13,0,0,1,472.9,460c6.32-1.54,12.91-2.34,18.9-4.68a82,82,0,0,0,18-9.88c2.69-1.94,3.78-6.1,5.59-9.26-13.68-7-25.76-3.94-35.88,6.67C475,447.5,472,453.55,468.32,459Z" transform="translate(-252.09 -325.26)" fill="#7ececc" stroke="#b6b6b6" stroke-miterlimit="10"/><path d="M998.2,544.3c4.32-14.53,8.73-28.71,12.68-43a95,95,0,0,0,3.21-18.19c1-13.49,1.73-27,1.76-40.53,0-2.8-3.27-5.82-5.46-8.37-7.82-9.07-17.32-5-25.28-1.35-6.14,2.79-11.6,8.35-15.81,13.87A404,404,0,0,0,945.39,482c-1.93,3.18-.7,8.24-1.09,12.42-1.16,12.57-2.33,25.14-3.63,37.7a79.48,79.48,0,0,1-2.18,13.31c-.33,1.18-3.59,1.27-4.94,2.49-1.82,1.64-3.11,3.87-4.57,5.89a23.35,23.35,0,0,0-1.34,2.37,20.29,20.29,0,0,1-1.17-2.53c-.41-1.31-.66-2.66-1-4a16.71,16.71,0,0,1-.7,3.27c-1,2.44-2.28,4.8-3.43,7.19-.42-.38-1-.68-1.22-1.14a18.61,18.61,0,0,1-.51-2.64c-.29-1.35-.62-2.68-.93-4-.37,1.62-.79,3.23-1.1,4.86a13.49,13.49,0,0,0-.07,2.19c-.3-.66-.43-1.62-.95-1.94-1.94-1.19-4.79-1.69-5.82-3.36-1.21-2-1.32-4.91-1.14-7.38,1-13.69,2.26-27.37,3.46-41,.79-9,1.37-18,2.53-27,1.4-10.73,4.49-21.36,4.7-32.08.2-10.19,3.88-12.53,13.35-12.14,3.78.15,7.89-4.52,11.61-7.31,2.91-2.17,5.46-4.83,8.18-7.25.1-.09.41.06.62.09-.58,1.16-1.16,2.33-1.76,3.48a12.84,12.84,0,0,1-.73,1.11,5.23,5.23,0,0,0,1.23-.28c9.74-4.85,19.7-9.32,29.16-14.68,13-7.34,34-3.06,42.24,6.63a148.35,148.35,0,0,1,17.7,24.91,75.06,75.06,0,0,1,8,23.81,153.7,153.7,0,0,1,1.75,32.74c-.73,12.53-1.53,25.62-5.73,37.23-4,11.06-9.53,23.7-25.49,23.25-4.84-.14-10.75,2-14.25-.13C1002.56,555.82,1001.18,549.78,998.2,544.3Z" transform="translate(-252.09 -325.26)" fill="#7ececc" stroke="#b6b6b6" stroke-miterlimit="10"/><path d="M1585.57,430.66c4.68,2.06,10.73,3,13.66,6.5,3.12,3.76,3.68,9.91,4.61,15.15.59,3.31-.25,6.87-.32,10.32s.22,6.93,0,10.38c-.85,14.82-1.73,29.65-2.79,44.46-.47,6.58-1.32,13.14-2.12,19.69-1,8.47-2.42,16.91-3.28,25.4-1.61,15.85-3,31.72-4.38,47.58-.16,1.82-.17,3.65-.24,5.48-1-.61-2-1.24-3-1.83-3.85-2.25-7.7-4.5-11.57-6.72-.24-.14-.65,0-1,0a21.69,21.69,0,0,0,.86,4.24,11.81,11.81,0,0,0,2.17,2.7,9.39,9.39,0,0,0-1.7-.87c-.14,0-.75.65-.69.9.28,1.29.7,2.55,1.07,3.82a47,47,0,0,1-5.77-2.24c-.86-.46-1.31-1.7-1.94-2.59-.43,1-.58,2.48-1.35,3.05-1,.73-2.69.48-3.69,1.19-.55.39-.54,1.95-.35,2.89a27.41,27.41,0,0,0,1.47,4c-1.93-1.05-4.09-1.84-5.73-3.23-1.41-1.2-2.07-3.25-3.41-4.56-.26-.25-3,2-3.18,1.72-5.63-5.82-14-11-16-17.93-4.9-17.2,1.38-33.88,7.55-50.1,4.25-11.17,8.08-22.5,12.2-33.73,4.89-13.32,9.91-26.6,14.84-39.91,4.46-12.07,8.94-24.15,13.18-36.3.41-1.18-.73-3-1.34-4.41a8.36,8.36,0,0,0-1.62-1.9l2.54-.92Z" transform="translate(-252.09 -325.26)" fill="#7ececc" stroke="#b6b6b6" stroke-miterlimit="10"/><path d="M580.6,497.15c1.15-11.25,2.1-19.89,2.91-28.54,1.5-16,3.33-31.9,4.2-47.89.49-8.92,5.91-8.52,11.95-8.23,11.13.53,18.29,7.63,21.66,16.79,3.48,9.44,4.32,19.95,5.63,30.08,1.26,9.79,3,19.83,2,29.5-.75,7.19-5,14.25-8.75,20.8-1.68,3-5.75,4.61-8.74,6.83a2,2,0,0,1-.67.19c.1-.48.16-1,.31-1.43s.43-1.13.65-1.69a5.06,5.06,0,0,0-1.84.34c-.38.24-.35,1.06-.7,1.41-2.3,2.33-4.66,4.6-7,6.9.1-1.36.24-2.72.3-4.08s.06-2.75.08-4.13c-1,1.27-2.06,2.5-3,3.83-.26.37-.12,1-.17,1.55a10.83,10.83,0,0,1-.78-2.08c-.2-1.2-.21-2.42-.3-3.63a37.82,37.82,0,0,0-2.85,4,30.37,30.37,0,0,0-1.59,4.24c-.37-1.11-.41-2.65-1.18-3.26-2.45-1.94-6.5-3-7.51-5.39C582.73,507.4,581.62,501,580.6,497.15Z" transform="translate(-252.09 -325.26)" fill="#7ececc" stroke="#b6b6b6" stroke-miterlimit="10"/><path d="M598.38,363.88c-2.56-5.59-5.19-11.16-7.66-16.79a33.89,33.89,0,0,1-2.4-7.2c-.17-.88,1.36-3,1.73-2.89a18.36,18.36,0,0,1,5.28,2.26c.59.36.67,1.56,1,2.38.38-.36.72-1,1.14-1.05,4.7-.53,4.91-10.2,13-5.21,7,4.32,15.95,5.33,23.17,9.35,3.06,1.7,3.91,7.37,5.76,11.24,0,.09-.1.27-.06.37,4.87,12.12-5.81,17-11.69,23.73-1.11,1.27-5.89,0-8.67-1-3.72-1.29-7.12-3.5-10.72-5.16-2.15-1-4.44-1.69-6.67-2.52-.34-.13-.82-.19-1-.45-1.35-2-2.63-4.13-3.93-6.2Z" transform="translate(-252.09 -325.26)" fill="#7ececc" stroke="#b6b6b6" stroke-miterlimit="10"/><path d="M1261.19,574c-.51-.66-.87-1.13-.87-1.14q2.64-2.15,5.35-4.21a6.81,6.81,0,0,1,.57.63C1264.63,570.78,1263,572.29,1261.19,574Z" transform="translate(-252.09 -325.26)" fill="#7ececc" stroke="#b6b6b6" stroke-miterlimit="10"/><path d="M765.89,522.48l-.7.42c-1.33-2.41-2.66-4.82-4-7.25,0-.07.34-.36.53-.55Z" transform="translate(-252.09 -325.26)" fill="#7ececc" stroke="#b6b6b6" stroke-miterlimit="10"/><path d="M763.06,498.11l-1.23,3.11c-.24-.66-.75-1.35-.67-2a20.44,20.44,0,0,1,1-3.35Z" transform="translate(-252.09 -325.26)" fill="#7ececc" stroke="#b6b6b6" stroke-miterlimit="10"/><path d="M1566.13,619.82c1.56,2.3,2.87,4.22,4.14,6.17,0,0-.31.34-.47.52-1.36-1.91-2.72-3.82-4.06-5.74C1565.69,620.7,1565.86,620.47,1566.13,619.82Z" transform="translate(-252.09 -325.26)" fill="#7ececc" stroke="#b6b6b6" stroke-miterlimit="10"/><path d="M1572.39,621c-.48.33-.84.64-.89.6-1-.91-2-1.85-3-2.79.26-.26.74-.76.76-.74C1570.24,619,1571.23,620,1572.39,621Z" transform="translate(-252.09 -325.26)" fill="#7ececc" stroke="#b6b6b6" stroke-miterlimit="10"/><path d="M663.85,399.89l-1.74-.68c1.55-.69,3.1-1.4,4.66-2.06.12,0,.38.25.57.38Z" transform="translate(-252.09 -325.26)" fill="#7ececc" stroke="#b6b6b6" stroke-miterlimit="10"/><path d="M1112.38,565.69l3.12.86c-1.64.22-3.28.46-4.93.62-.28,0-.59-.28-.88-.43Z" transform="translate(-252.09 -325.26)" fill="#7ececc" stroke="#b6b6b6" stroke-miterlimit="10"/><path d="M644,525.5l-2.32-1.08c.6-.43,1.31-1.32,1.76-1.2.81.21,1.45,1,2.17,1.6Z" transform="translate(-252.09 -325.26)" fill="#7ececc" stroke="#b6b6b6" stroke-miterlimit="10"/><path d="M1188.95,455.13a14.29,14.29,0,0,1,1.48,1.83,6.63,6.63,0,0,1-1.76,1.76c-.29.16-1-.4-1.49-.63Z" transform="translate(-252.09 -325.26)" fill="#7ececc" stroke="#b6b6b6" stroke-miterlimit="10"/><path d="M1037.13,428.61c-.8-1.44-1.39-2.45-1.91-3.49-.06-.13.27-.44.41-.67.71.92,1.46,1.82,2.11,2.77C1037.84,427.36,1037.51,427.79,1037.13,428.61Z" transform="translate(-252.09 -325.26)" fill="#7ececc" stroke="#b6b6b6" stroke-miterlimit="10"/><path d="M858.1,538l3,1.44-1.94,1.06L858,538.16Z" transform="translate(-252.09 -325.26)" fill="#7ececc" stroke="#b6b6b6" stroke-miterlimit="10"/></svg>