<svg id="Layer_1" data-name="Layer 1" xmlns="http://www.w3.org/2000/svg" viewBox="0 0 1458.69 649.07"><title>FirstName</title><path d="M1032.5,637.23a10.47,10.47,0,0,0-2.84,5.81A3.14,3.14,0,0,1,1027,646a39,39,0,0,1-21.3-.39,15.29,15.29,0,0,1-5.08-2.56A60.31,60.31,0,0,0,989,635.38a6.55,6.55,0,0,1-2.29-1.68c-1.54-2-3.59-2.21-5.92-2.44a80.85,80.85,0,0,1-9.86-1.94c-1.12-.25-1.09-.37-2.83-2.26.67-1.27,1.92-.89,3-1,1.59-.18,3.19-.21,4.76-.44,1.13-.17,2-1.28,1.58-2a3.09,3.09,0,0,0-1.7-1.41c-3.56-.82-7.16-1.47-10.74-2.23a5.19,5.19,0,0,1-1.33-.83c.08-.61.14-1.22.24-1.83.5-3,.47-3-2.1-4.56a6.81,6.81,0,0,1-2.32-1.59c-1.72-2.64-4.35-3.64-7.16-4.44a17.47,17.47,0,0,1-1.86-.78l-1.43-5.28,3.24-3.1A8.68,8.68,0,0,0,950,596.5a30.64,30.64,0,0,0-3.82.1c-3.85.15-7.42-.83-10-3.75-1.94-2.23-4.31-1.75-6.61-1.95a7.38,7.38,0,0,0-5.66,2.19,3.65,3.65,0,0,0-.87,1.65c-.22.76-.24,1.58-.39,2.36-.38,2-1.58,3.36-3.56,3.3-4.59-.14-6.89,3.61-10.13,5.72-.67.43-.59,2-.91,3.32-4.72,1.54-9.51,3.29-14.75,1.46a11.27,11.27,0,0,0-5.69-.34A17.3,17.3,0,0,1,880,610c-7.09-2-14.17-4-20.74-7.4-.43-.22-.89-.38-1.3-.62-9.27-5.35-18.65-10.55-26.86-17.54a187.53,187.53,0,0,1-24.16-24c-6.37-7.82-12.58-15.76-16.89-25q-1.73-3.69-3.36-7.43c-.7-1.61-1.21-3.31-2-4.89-5-10-7.58-20.7-9.53-31.6-.84-4.72-1.62-9.45-2.43-14.18-.08-.47-.17-.95-.27-1.41-.85-3.78-1.18-4.14-5.22-5.55l1.59-6.31c-1.06.23-1.76.16-2.12.49A17.27,17.27,0,0,0,762.5,471a5.18,5.18,0,0,0-.3,4.18,6.59,6.59,0,0,1-.93,6.38c-1.74,2.68-3.58,5.29-5.39,7.93-1,1.45-2,2.88-3,4.33a35.16,35.16,0,0,1-3,4.34c-1.68,1.8-2.57,4-3.77,6a94.29,94.29,0,0,1-7.72,11.53c-4,5-8.39,9.65-12.6,14.45a8.82,8.82,0,0,1-1.22,1.47c-3.56,2.55-6.08,6.1-8.87,9.37-4.7,5.5-10.28,10.05-15.55,14.94-2,1.85-3.85,3.84-5.8,5.73-3.09,3-6.19,6-9.34,8.95a9,9,0,0,0-2.78,3.83c-.19.59-.47,1.41-.93,1.62-3,1.34-5,3.93-7.21,6.17a1.81,1.81,0,0,1-.83.47c-5.63,1.26-9.91,4.92-14.5,8.06-2.76,1.89-5.43,4-9,4.37a5.53,5.53,0,0,0-2.2.91A63.89,63.89,0,0,1,632,603.24a4.49,4.49,0,0,0-3.08,2.8c-.27.73-.57,1.45-.91,2.33-2.15-.19-4-1.67-6.14-.83-1.78.7-3.58,1.35-5.63,2.12-3.06-2.4-6.9-1.08-10.47-1.65-1-.17-1.62.88-2,1.78a1.66,1.66,0,0,0,.67,2.45c.18.11.21.49.41,1-4,.56-7.69-.22-11.4-1.1a38.85,38.85,0,0,1-4.12-1.29,8.93,8.93,0,0,0-5.64-.33,11.43,11.43,0,0,1-2.83.43c-2.25.05-3.24-.69-3.85-2.8-.27-.92-.41-1.88-.66-2.8a2.73,2.73,0,0,0-2.18-2.29c-2-.3-2.87-1.79-3.78-3.34a59.58,59.58,0,0,1-4.91-10.39A110.6,110.6,0,0,1,559,560.84c-.37-4.77-1.54-9.48-1.14-14.32a2.23,2.23,0,0,0-2.11-2.24,10.54,10.54,0,0,0-3.32.15c-4.5,1.1-9,2.3-13.46,3.48a.81.81,0,0,0-.43.19c-.35.47-1,1-.9,1.44a1.85,1.85,0,0,0,1.29,1.15,24.51,24.51,0,0,0,4.29.1c1.59-.08,3.18-.39,4.77-.47a9.94,9.94,0,0,1,2.2.37c-.2,1.35-1.14,1.31-1.83,1.56-3.46,1.26-6.85,2.54-9.6,5.22a12.15,12.15,0,0,1-4.65,2.35q-6.83,2.27-13.76,4.23c-3.31.93-6.25,2.24-8.39,5.15a10.71,10.71,0,0,1-7.37,4.15,21.43,21.43,0,0,0-8.39,3c-1.23.72-2.69,1-4,1.68a2.2,2.2,0,0,0-.82,1.52c0,.28.53.73.91,1,1,.64,2.62.16,3.43,1.89l-4,3c0,1.26.87,1.4,1.63,1.38,1.89-.07,3.78-.28,5.67-.43.15,1.12-.68,1.07-1.18,1.21-5.54,1.57-11,3.49-16.65,4.55-10,1.89-20,4.28-30.36,4.19-6.87-.06-13.73.52-20.6.75-5.59.19-11.2.17-16.79.47-6.42.34-12.77-.51-19.15-.89-2.87-.17-5.75-.31-8.63-.38-2.73-.06-5.44-.08-8-1.22a5.67,5.67,0,0,0-1.86-.42c-11.61-.87-22.59-4.43-33.46-8.18-7.39-2.55-14.5-5.94-21.73-9a19.68,19.68,0,0,1-2.57-1.3,236.68,236.68,0,0,1-33-23.83,18.56,18.56,0,0,1-5-6.34,37,37,0,0,0-2.7-4.53,69.75,69.75,0,0,1-8.28-17.22c-1.77-5.81-3.79-11.54-5.89-17.24a25.13,25.13,0,0,0-2.89-4.89c-.19-.29-1-.53-1.24-.36a2.23,2.23,0,0,0-.88,1.48,9.32,9.32,0,0,0,.54,2.81c1,2.88,2,5.74,3,8.61a8.17,8.17,0,0,1,.67,2.27,1.9,1.9,0,0,1-.82,1.51,2.19,2.19,0,0,1-1.74-.27,3.64,3.64,0,0,1-1.22-1.44,23.53,23.53,0,0,1-1.56-3.5c-2.42-7.47-4.58-15-5.27-22.86-.33-3.82-.61-7.65-1-11.47a21.56,21.56,0,0,0-.7-4.25c-2.31-7.58-1.83-15.15-.24-22.77.79-3.75,1.21-7.59,2.21-11.28a150.26,150.26,0,0,1,10-27.47c3.9-7.88,7.83-15.76,12-23.49,2.82-5.19,6.19-10.08,9.15-15.2,1.47-2.55,3.86-3.13,6.2-3.5,1.52-1.48,1.24-3.13,1-4.69a5.94,5.94,0,0,1,1.19-4.5q2-2.71,3.91-5.46a50.45,50.45,0,0,0,3.22-4.76,20.34,20.34,0,0,1,6.3-7.12,29.89,29.89,0,0,0,7.36-7.43c2-2.83,4.76-5.16,7.34-7.53a17.17,17.17,0,0,0,3.66-4.37,23.12,23.12,0,0,1,3-4.35c5.45-6.07,10.75-12.29,16.56-18s11.77-11.76,18.39-16.84a24.28,24.28,0,0,0,3-2.43c5.08-5.37,11-9.78,16.62-14.5,1.59-1.33,3.24-2.61,4.95-3.79,2-1.37,3.92-2.72,5.1-5a3.87,3.87,0,0,1,2.09-1.8c3.18-.88,5.68-2.92,8.4-4.58s5.63-3.66,8.35-5.64a13.69,13.69,0,0,0,3-3.05c1-1.39,2.07-2.44,3.87-2.43,2.7,0,4.49-1.37,5.86-3.55a16.31,16.31,0,0,0,1.9-2.75c1.2-3.34,3.87-5,6.82-6.35,5.65-2.64,11.3-5.29,17-7.86,3.93-1.78,7.89-3.51,11.89-5.13a278.87,278.87,0,0,1,33.3-10.78,168.58,168.58,0,0,1,24.44-4.93c4.77-.54,9.54-1,14.32-1.4a24.21,24.21,0,0,1,3.35,0c4.95.25,9.89.55,14.84.76a75.56,75.56,0,0,1,18.4,3.19c6.73,2,13.38,4.36,19.48,8,3.29,2,6.84,3.51,10.1,5.52,2.57,1.59,4.87,3.61,7.29,5.44,1.53,1.16,3.08,2.28,4.56,3.5a47.27,47.27,0,0,1,4.64,4.12,20.24,20.24,0,0,1,5.08,10.1,48.34,48.34,0,0,1,1.38,12.81,14.28,14.28,0,0,1-.9,4.66c-1.33,3.08-2.87,6.08-4.48,9a14.78,14.78,0,0,1-8.13,7.09,48.5,48.5,0,0,0-11.68,5.51,7.8,7.8,0,0,1-3.57,1.27c-4.77.48-9.54.84-14.32,1.14-6.24.4-12-1.31-17.57-4a83.2,83.2,0,0,0-10.16-4.22,49.74,49.74,0,0,0-7.52-1.35c-.47-.08-1,0-1.43-.13-6-1.57-12-1.55-18.09-1.29a102.82,102.82,0,0,0-15.71,1.65c-5.18,1-10.38,1.93-15.57,2.88a14.53,14.53,0,0,0-2.35.44c-7.5,2.74-15.39,4.37-22.61,7.93a20.11,20.11,0,0,1-4.44,1.8c-7,1.55-12.94,5.4-19,9-1,.57-1.9,1.19-2.87,1.74-4.75,2.64-9.58,5.13-14.23,7.93-3.14,1.89-6.06,4.15-9,6.35-3.72,2.77-7.48,5.49-11,8.49-4.51,3.83-8.85,7.85-13.17,11.89-5.13,4.8-10.26,9.61-15.18,14.61-2.68,2.72-4.93,5.87-7.38,8.82-1.63,2-3.24,4-4.9,5.9q-3.58,4.19-7.24,8.33c-1.38,1.55-2.84,3-4.24,4.56a26.59,26.59,0,0,0-1.85,2.19c-2.18,3-4.28,6-6.49,8.91-3.85,5.11-7.79,10.15-11.65,15.25-4.14,5.48-8.4,10.89-12.28,16.55-3.16,4.61-6,9.48-8.72,14.34-2.45,4.31-4.59,8.79-6.95,13.15a42.51,42.51,0,0,0-3.82,9.29,62.63,62.63,0,0,1-2,6.41c-1.88,4.89-2.12,10-2,15.11a22.18,22.18,0,0,0,2.43,9.68A52.45,52.45,0,0,0,317,502.74c7.4,5.51,15.66,9.29,24.17,12.61a52,52,0,0,0,5.06,1.5c4.62,1.28,9.24,2.58,13.88,3.79,4.95,1.29,9.9,2.6,14.89,3.7a52,52,0,0,0,7.14.82c6.22.49,12.44.93,18.65,1.36,3.19.22,6.38.37,9.57.62,8.79.69,17.57,0,26.36-.06,4.31,0,8.62-.29,12.93-.5,7.66-.37,15.32-.77,23-1.15,1.28-.06,2.56-.22,3.83-.19a63.24,63.24,0,0,0,15.25-1.41,13.89,13.89,0,0,1,2.38-.33c8.14-.4,16.28-1,24.43-1.11,12-.09,24-.14,36-1.09,2.54-.2,5.08-.61,7.6-1a5.76,5.76,0,0,0,4.65-3.72c3.94-9.71,9.93-18.25,15.58-27a65.86,65.86,0,0,1,7.61-9.86c6-6.22,12.21-12.21,18.46-18.17,3.35-3.2,7-6.12,10.46-9.17.84-.74,1.63-1.55,2.52-2.21,6.68-5,13.29-10,20.1-14.78q9.81-6.89,20-13.29c3.77-2.38,7.84-4.28,11.78-6.4.14-.08.31-.1.44-.18,5-3.21,10.65-5.11,15.91-7.81a148.46,148.46,0,0,1,40.6-14.26c7.55-1.4,15.1-2.78,22.63-4.29a59,59,0,0,1,12.86-1.27c2.4.05,4.8,0,7.2,0a25.35,25.35,0,0,0,10.8-1.76,20.06,20.06,0,0,1,4.65-1.06c3.51-.59,6.72-.16,9.05,2.93a1.18,1.18,0,0,0,.35.32c3.07,1.69,4.88,4,4,7.77,1,3,1.95,6.06,3,9.07.07.22.51.32,1.07.64l2.65-2.32c.26.15.7.26.73.44.2,1.09.25,2.21.45,3.3a28.28,28.28,0,0,0,1.12,5.1,12.35,12.35,0,0,1,.88,5.14c-.45,9.64,2,18.65,5.84,27.4,4.4,10,9.07,19.77,14.11,29.41a37.71,37.71,0,0,0,2.77,4.48c4,5.59,8.06,11.15,12.12,16.7a17.72,17.72,0,0,0,2.13,2.59c5.15,4.79,10.39,9.49,15.52,14.31,7.86,7.36,16.82,13.21,25.65,19.3a63.49,63.49,0,0,0,12.51,6.72c4.88,2,9.47,4.64,14.23,6.92,1.95.93,3.09,2.19,2.78,4.47,0,.22.3.48.46.73,3.69-2,3.76-1.93,7.57-.48,2.54,1,5.1,1.89,7.68,2.72a26.4,26.4,0,0,0,15.15.29c4-1.08,8-2.25,12-3.4,1.21-.35,2.39-1,3.92,0l-.61,4a4.38,4.38,0,0,0,.4.88c.38.51.88.94,1.23,1.47,2.67,3.93,2.22,5.66-1.83,8a60.42,60.42,0,0,0-5.9,4,1.85,1.85,0,0,0-.37,1.7,1.89,1.89,0,0,0,1.43,1,23.83,23.83,0,0,0,5.18-.69c2.92-.82,5.76-2,8.66-2.84a25.09,25.09,0,0,1,5.12-1.13c7.1-.6,13.77-2.82,20.37-5.27,2.85-1.06,5.6-2.31,8.7-2.57a6.46,6.46,0,0,0,3.06-1.16c3.9-2.78,7.68-5.71,11.55-8.53s7.73-5.67,11.71-8.33c5.52-3.7,10-8.51,14.33-13.4a25.21,25.21,0,0,0,6.2-15.3c.31-4.41-1.21-7.75-5.33-9.83-10.14-5.11-20.17-10.45-30.37-15.44-4.87-2.38-10-4.09-15.05-6.2-8.69-3.66-17.34-7.41-26-11.06-2.35-1-4.77-1.84-7.21-2.59a5.74,5.74,0,0,0-2.83,0,7.73,7.73,0,0,1-5.54-1c-3.53-1.88-7.07-3.73-10.6-5.61a12.71,12.71,0,0,1-5.46-5.86,24.7,24.7,0,0,1-1.55-19.55,20.36,20.36,0,0,0,.5-12.24A55.6,55.6,0,0,1,944,406.55a30.15,30.15,0,0,1,6.19-17.33,38.15,38.15,0,0,1,8.6-8.29,153,153,0,0,1,18.34-11.36c10-5.35,20.15-10.47,30.24-15.69a11.14,11.14,0,0,1,1.31-.6c11.57-4.19,22.72-9.49,34.45-13.26,3.2-1,6.42-2,9.68-2.78,11.07-2.56,22.23-4.88,33.57-5.64,7-.47,14-1.42,21.06-.79a12.58,12.58,0,0,0,2.87-.12c5.38-.77,10.74-1.61,16.12-2.34a13.21,13.21,0,0,1,3.78.12,33.61,33.61,0,0,1,4.18,1.08c3.68,1.09,4.22,2.21,2.27,5.48a55,55,0,0,0-5.65,12.13,15.65,15.65,0,0,1-5.86,8,3.75,3.75,0,0,1-.76.59c-4,1.54-7.81,3.56-11.95,4.76a2.21,2.21,0,0,1-.48.06c-7.76.49-14.88,3.36-22.09,5.91a41.39,41.39,0,0,1-5.54,1.5,16.58,16.58,0,0,0-7.47,3,10.79,10.79,0,0,1-7.12,2.47,5.6,5.6,0,0,0-4.89,2.48,15.24,15.24,0,0,1-4.61,4.11c-2.41,1.35-4.69,2.49-7.66,2-2.5-.43-4.65,1-6.49,2.59a38.73,38.73,0,0,0-3.67,3.79,31.7,31.7,0,0,1-9,7c-3.35,1.82-3.33,1.86-7.23,1.55-.27.17-.66.27-.78.51a16.56,16.56,0,0,1-8.68,7.89,10.23,10.23,0,0,0-3.74,2.87,28.38,28.38,0,0,1-5.48,4.58,33.86,33.86,0,0,0-5.18,4.92,3.81,3.81,0,0,0-.49,4.5c1.87,3.55,3.82,7.11,7.34,9.31,4.88,3,9.76,6.12,14.83,8.82,15.66,8.36,31.8,15.78,47.28,24.48,2,1.1,4,2,6,3.08s3.65,2,5.4,3.12q5.24,3.37,10.39,6.88c2.64,1.8,5.21,3.7,7.82,5.53,1.31.92,2.65,1.78,4,2.67,4,2.68,7.93,5.38,10.5,9.62.74,1.22,1.9,2.17,2.7,3.36,1.61,2.37,3.14,4.81,4.64,7.25a36.57,36.57,0,0,0,2.33,4.16,9.65,9.65,0,0,1,2.18,7.61,11.69,11.69,0,0,0,1.06,7,11.08,11.08,0,0,1,.94,5.1,70.64,70.64,0,0,1-1.5,13.81c-.92,4-1.32,8.19-2.09,12.27a43.43,43.43,0,0,1-1.64,5.47c-.85,2.57-1.77,5.12-2.66,7.68s-1.58,4.86-2.57,7.21a84.43,84.43,0,0,1-16,24.85c-6.2,6.72-12.87,12.9-19.43,19.21a24,24,0,0,1-9.61,6.18c-.16-.21,0,.05,0,0-5.31,5.23-11.85,8.49-18.49,11.62a68.11,68.11,0,0,1-13.8,5.25c-4.7,1.07-6.24.39-8.16-4.08a7.31,7.31,0,0,1-.62-2.51c.12-.2,0-.14,0-.06a2.26,2.26,0,0,0-.17.33,2.23,2.23,0,0,0,.27-.25C1032.63,637.16,1032.66,637.05,1032.5,637.23ZM610.58,540.71c.07,1,.18,1.91.2,2.87.19,6.8,2,13.26,4.33,19.58a27.21,27.21,0,0,0,2.26,4.21,5.71,5.71,0,0,0,5.21,2.86c1,0,1.92,0,2.87-.06,3-.21,6-.5,9.08-.65a24.4,24.4,0,0,0,12.18-3.93c4-2.6,8.05-5.21,12.13-7.74a26.46,26.46,0,0,1,4.66-2.37,7.74,7.74,0,0,0,3.37-2.53,48.31,48.31,0,0,1,5.19-5.61c5.28-4.64,10.76-9,16-13.69,4.08-3.59,8.19-7.18,11.89-11.14,5.78-6.18,11.54-12.4,16.47-19.32,3.24-4.56,6.75-8.92,10.1-13.41,1.81-2.43,3.64-4.85,5.29-7.39,4.53-7,9-14,13.45-21,.86-1.34,1.61-2.76,2.37-4.16q5.33-9.92,10.63-19.86,4.5-8.46,8.93-17c1.82-3.52,1.72-5.9-3.95-5.49-.48,0-1,.11-1.43.15-2.87.23-5.73.56-8.6.65a121.63,121.63,0,0,0-35.34,5.93c-3.48,1.18-7,2.24-10.15,4.25a8.55,8.55,0,0,1-3.06,1.32c-3.43.57-6.32,2.31-9.08,4.19-8.59,5.83-17.86,10.66-25.73,17.54a14.32,14.32,0,0,1-1.17.84c-6.41,4.55-11.63,10.46-17.58,15.53a5.3,5.3,0,0,0-.64.72c-6.75,8.31-14.2,16-20.45,24.76-2.24,3.12-4.42,6.24-6.4,9.53a170.38,170.38,0,0,0-8.9,17.5C611.41,525.17,610.62,532.84,610.58,540.71ZM292.88,375c.46-.26,1.15-.44,1.46-.88,2.4-3.36,4.73-6.76,7-10.17a2.24,2.24,0,0,0,.34-1.35,1.66,1.66,0,0,0-.6-1.18,2,2,0,0,0-1.33.06,1.47,1.47,0,0,0-.72.6c-2.29,3.43-4.6,6.86-6.82,10.34a3.32,3.32,0,0,0-.2,1.81C292.08,374.46,292.48,374.65,292.88,375ZM788.22,496.1a11.73,11.73,0,0,0,.1-2.59q-1.08-5.16-2.35-10.28a7.57,7.57,0,0,0-1.06-2.11,1,1,0,0,0-.83-.35,1.08,1.08,0,0,0-.76.48,2.64,2.64,0,0,0-.37,1.36c.45,4.64,1.45,9.11,4.09,13.07C787.11,495.79,787.33,495.79,788.22,496.1ZM1017.67,559c-5.12,1.31-8.63,3.76-12.26,6-.29.18-.32.78-.49,1.24,2.91.2,2.95.27,4.71-.5,2.47-1.09,5.11-1.94,7-4C1017,561.22,1017.08,560.51,1017.67,559ZM267.06,438.58c-.42.13-.87.13-1,.31-1.38,2.64-2.75,5.3-4,8a3.22,3.22,0,0,0-.12,1.85,1.46,1.46,0,0,0,.84,1,2,2,0,0,0,1.27-.35,1.36,1.36,0,0,0,.61-.7c1-3,2-5.95,2.92-8.95C267.66,439.41,267.23,438.95,267.06,438.58ZM468.43,530c-3.76.15-7,.27-10.3.44a3.17,3.17,0,0,0-1.34.43c-.67.38-1.42.8-.86,1.87,2.49,0,5,0,7.5,0A6.33,6.33,0,0,0,468.43,530ZM277.9,417.36c.93,0,1.36.13,1.53,0a16.45,16.45,0,0,0,4.28-6.73,1.34,1.34,0,0,0-.55-1.17,1.37,1.37,0,0,0-1.3.14A14.07,14.07,0,0,0,277.9,417.36Zm498.16,68.26c.71-.55,1.19-.74,1.33-1.07.32-.76.27-1.58-.64-1.9-.26-.09-1,.36-1,.6A11.44,11.44,0,0,0,776.07,485.62ZM264.92,425l-1-1c-.27.31-.76.62-.75.91s.48.64.76,1Zm22.59-15-.48-.69c-.22.18-.58.33-.61.54s.28.45.44.68Zm349.44,64.34a5.89,5.89,0,0,0,0,.68,1.31,1.31,0,0,0,.37,0,6.41,6.41,0,0,0,0-.69Zm404,164.31a5.82,5.82,0,0,0-.67,0,1.26,1.26,0,0,0,0,.36,6.08,6.08,0,0,0,.68,0Zm-13.6,1.42-.15.42.66.05c0-.14,0-.33-.1-.42S1027.45,640.06,1027.32,640Zm-757.82-186a6.66,6.66,0,0,0-.36.61,2.9,2.9,0,0,0,.32.21,6.6,6.6,0,0,0,.36-.61A2.86,2.86,0,0,0,269.49,454.09Zm4.8-50.23c.13-.05.32-.07.38-.17s0-.27,0-.42l-.64.27Zm637.63,150c.08-.11.23-.21.22-.32s-.14-.22-.23-.33l-.37.5ZM511.49,270l.17-.28h-.33ZM281.43,446.83l.13.3.19-.25Zm-14.19,15.31-.24.2.28.12Zm654.21,91.95c-.07.09-.2.19-.2.28s.12.2.19.3l.33-.44ZM563.55,275.6v-.29l-.25.15ZM285.77,448.11l-.15.25h.29Zm241.46,77.64-.1-.24-.16.21ZM1616,488.7c-.61.08-1.5-.07-1.79.27a51,51,0,0,0-10.4,18.86c-1.61.55-3.7.58-4.83,2.39-.77,1.22-2,.52-3.24.84a22,22,0,0,0-1.16,2.92c-.56,2.21-1.65,3.73-4.1,4a2.92,2.92,0,0,0-2.67,2.92c-.18,2.14-1.44,3.38-3.13,4.51a11,11,0,0,0-3,3,16.08,16.08,0,0,1-5.49,5.2,12.25,12.25,0,0,0-2.5,2.2,2.93,2.93,0,0,0-.63,3.52c2,4.16.46,8-1.83,11.2a111.91,111.91,0,0,0-7.22,11.79,9.89,9.89,0,0,1-1,1.61c-2,2.36-4,4.67-2.66,8a11,11,0,0,1-1.86,1.41,5.59,5.59,0,0,0-3.75,6.44c.43,3.61-1.1,6.49-3.45,9.07a4.26,4.26,0,0,1-5.15,1.33c-1.33-.54-2.65-1.1-4-1.66l-.56-.49.49.56a8.13,8.13,0,0,0-.7,1.25c-1.35,3.8-3.62,6.73-7.75,8-.2,1.83,1.28,3.53.08,5.17-.94,1.28-1.89,2.55-2.84,3.82-.19.26-.43.48-.62.73a2.5,2.5,0,0,0,.35,3.8,31.67,31.67,0,0,1,3.4,3.33c1.86,2.44,1.53,3.76-1.12,5.43a8,8,0,0,1-1.6.62c-1.71-.66-1.49-2.16-1.92-3.29-.87-2.27-1.81-2.56-4-1.52a8.75,8.75,0,0,0-3.38,3.29,123.08,123.08,0,0,0-9.3,15.1c-1.67,3.3-3.42,6.51-6.92,8.35a4.73,4.73,0,0,0-1.66,2.25c-1.23,2.72-2.84,5.32-1.9,8.62a4,4,0,0,1-1.42,3.9,16.78,16.78,0,0,0-5.46,9.35,3.24,3.24,0,0,1-2.62,2.51c-2.22.64-3.62,1.94-3.76,4.38-.08,1.41-1,2.22-2.09,3a26.31,26.31,0,0,0-3.52,3.16,3.06,3.06,0,0,0-.73,1.74,2.16,2.16,0,0,0,.45,1.68c.3.23,1.25,0,1.62-.35a23.94,23.94,0,0,0,2.2-2.67c1.82,1.65,1.9,3.57,1.68,5.43-.07.57-1,1.3-1.65,1.48a24.65,24.65,0,0,1-4,.41l.56,3.22a43.3,43.3,0,0,0-4.93,1.85,2.72,2.72,0,0,0-1.18,4.07c.61,1.12,1.44,2.12,2,3.24a3,3,0,0,1-.78,3.89,1.94,1.94,0,0,1-2.62.3c-1.12-.83-2.13-1.82-3.23-2.78-.26.51-.54.78-.52,1a2.93,2.93,0,0,1-2.64,3.42c-2.72.38-4.21,2-5.31,4.28-.48,1-1.26,1.85-1.81,2.82a5.84,5.84,0,0,0-.23,5.93,36.75,36.75,0,0,1,4.17,14.16,13.28,13.28,0,0,1-.21,5.38,5.49,5.49,0,0,1-1.29-.74c-.79-.86-1.69-1.65-2.89-1.35a6.86,6.86,0,0,0-3,1.42c-2,1.84-3.13,4.21-2.33,6.91a17,17,0,0,1-.14,9.91,14.93,14.93,0,0,0-.33,3.8,12.46,12.46,0,0,1-2.79,8,10.51,10.51,0,0,0-2,4.27,50.44,50.44,0,0,1-2.32,6.79,19.46,19.46,0,0,1-2.44,4.1,2.66,2.66,0,0,1-3.84.62c-1-.57-1.8-1.34-2.76-1.91-1.47-.87-2.91-.08-3.1,1.66a9.6,9.6,0,0,0,0,1.44c.09,2.23.06,4.48.33,6.69a45.78,45.78,0,0,0,1.31,5.33,13.05,13.05,0,0,1-2.58.8c-.94.09-1.91-.24-2.86-.17a3.21,3.21,0,0,0-1.68.77,2,2,0,0,0,.63,3.43c.6.19,1.27.15,1.89.31a9.19,9.19,0,0,1,1.41.65c.22,2.51-.79,4.71-1.9,6.77-1.74,3.22-3.51,6.47-6.37,8.93a14.13,14.13,0,0,0-3.62,5.58c-2.43,5.86-5.85,11-11.09,14.72a4.88,4.88,0,0,0-2.08,5c.14.94.22,1.89.34,2.94l-3.24,3.76a25.67,25.67,0,0,0-4.62.06,4.89,4.89,0,0,1-4.8-1.39,22.86,22.86,0,0,0-8.53-5.2,3.88,3.88,0,0,1-.89-.36c-2.4-1.71-4.69-1.84-7.58-.7-3.3,1.3-6.93.39-10.37-.33a19.52,19.52,0,0,1-2-.65c-2.89,2.21-6.45,2.37-9.91,2.86a24.92,24.92,0,0,1-2.87.17,6.28,6.28,0,0,0-5.67,3c-.23.37-.73.57-1.05.81-1.46,0-1.69-1.06-1.69-2a95,95,0,0,1,.17-12,106.1,106.1,0,0,1,4.81-22.48c.58-1.66,1.32-3.25,1.91-4.91a35.54,35.54,0,0,0,1.59-5,27.56,27.56,0,0,1,3.23-8.47,41.14,41.14,0,0,0,5-11.87c.66-3.1,2.66-4.92,5.31-6.45l2,2.46c2.21-2.1,2.68-4.68,3.2-7.34-.66-.34-1.06-.71-1.47-.72-1,0-2,.1-2.5-1-.69-1.33-1.1-2.74-.22-4.1.6-.93,1.52-1.64,2.16-2.55a2.76,2.76,0,0,0-.85-4.13c-.39-.26-.9-.35-1.3-.6-1.59-1-2-1.95-1.55-3.57s1.22-2.5,3.08-2.36c2.63.2,3.81-1.16,4.63-3.27a4.82,4.82,0,0,0,.32-.9c1.13-6.71,4.43-12.64,6.86-18.89a34.14,34.14,0,0,1,3.63-6.7,61.92,61.92,0,0,0,4.57-7.85c2.16-4.45,4.73-8.7,7-13.12,3.18-6.26,7.33-12,10-18.56,1.65-4.14,4.08-8,6.16-11.92a1.26,1.26,0,0,1,.26-.4c3.71-3,5-7.74,8-11.3a9.35,9.35,0,0,0,2.19-6.2,14.2,14.2,0,0,1,4.19-9.92c2-2.11,3.81-4.32,6.42-5.71a6.65,6.65,0,0,0,1.51-1.17c1.72-1.72,1.85-3,.7-5.52a11.28,11.28,0,0,1-.43-1.51c.71-.62,1.37-1.3,2.12-1.86a8.74,8.74,0,0,0,3.37-4.55c.92-3.16,2.94-5.65,4.74-8.28,1.44-2.11,3-4.17,4.44-6.26a15.78,15.78,0,0,0,2.76-6.56,17.19,17.19,0,0,1,2-4.81c1.41-2.68,2.9-5.32,4.45-7.93a8.64,8.64,0,0,0,.16-8.7,26.26,26.26,0,0,1-1.42-3.54,1.37,1.37,0,0,1,.45-1.24c.5-.26,1.37-.47,1.73-.2a5.75,5.75,0,0,1,1.73,2.12,17.73,17.73,0,0,1,.86,3c2.36.33,2.53-2,4.35-2.72.43.1,1.19.25,1.94.46a2.84,2.84,0,0,0,3.35-1.2c.9-1.27,1.25-2.64.29-4a23.46,23.46,0,0,1-4.14-14.91,4.32,4.32,0,0,0-.29-1.88,115.22,115.22,0,0,1-5.83-17.74,10.32,10.32,0,0,0-1.26-2.53,1,1,0,0,0-.85-.2c-.26.07-.65.36-.67.58a27.74,27.74,0,0,0,0,3.3,24,24,0,0,1,.26,3.78,2.36,2.36,0,0,1-1.5,1.57,2.34,2.34,0,0,1-2.09-.64c-1.34-2.55-2.72-5.32-1.49-8.18,1.48-3.44,1.38-6.87.77-10.35s-1.5-7.19-2.35-10.77c-.49-2.08-.87-4,.75-5.88a2.61,2.61,0,0,0-.33-3.89c-3.37-2.78-4.18-6.63-5-10.58-1.51-7-3.14-14-4.82-21-.67-2.79-1.61-5.51-2.41-8.26a3.14,3.14,0,0,0-2.16-2.36c-1.62-.46-2.2-1.71-2.49-3.2a22.25,22.25,0,0,1-.45-2.35c-.53-6.27-2.35-12.25-4.25-18.18-1.11-3.48-2.77-6.79-4.19-10.18-.56-1.32-1.19-2.62-1.7-4a5.71,5.71,0,0,1,0-1.68l3-1.09c3.66-6.6,3-9.6-2.78-13.08l-.07-.05a7,7,0,0,0-6.93-4.93,5.47,5.47,0,0,0-5.18,2.82c-3.14,5.18-4,10.43-.54,15.79,1.56,2.41,1.35,4.84.46,7.35a2.42,2.42,0,0,1-2,1.88c-1.33.13-2-.8-2.54-1.84a12.43,12.43,0,0,1-1-5.61c0-2.23-.17-4.46-.38-6.68a6.07,6.07,0,0,0-1.9-4.28c-1.92-1.65-2.19-3.84-1.92-6.13a31.15,31.15,0,0,1,.93-4.2c.32-1.24.83-2.43,1.07-3.68.88-4.54.57-5.54-2.63-9.16a12,12,0,0,1,5.37-6.91c2.86-1.77,5.87-1.22,8.66.4,1.37.79,2.59,1.83,3.81,2.71.42-.14.84-.15,1-.36,2.27-3.15,3.26-3.73,6.71-2.24,3.24,1.4,6.57,1.16,9.89,1.4a6,6,0,0,0,2.75-.62,2.94,2.94,0,0,0,1.53-4c-.58-1.3-1.46-2.47-2.13-3.74-1-1.87-.19-3.13,2-3.06,2.86.1,5.67.14,8.06,2.36,1.84,1.71,2.95,1.21,3.84-1.15.22-.57.38-1.17.64-2a19.32,19.32,0,0,1,5.89,3.27,2.16,2.16,0,0,1,.78,1.65c-.57,6.46,1.36,12.66,2,19a18,18,0,0,1-.42,6.64,7.14,7.14,0,0,1-2.76,4.3c-1.86,1.34-2.18,2.62-1.2,4.56q2.59,5.13,5.58,10.05a4.92,4.92,0,0,0,4.54,2.68l1.25-3.4c.37,0,.82-.08,1,.08,1.42,1.71,3.17,3.28,4.11,5.23,2.46,5.11,6,9.46,9.45,13.83,2.35,3,4.26,6,4.27,9.9a4.78,4.78,0,0,0,2.24,4,15.1,15.1,0,0,1,4.17,5.18,151.56,151.56,0,0,1,11.53,24.22c.05.15.11.3.18.44q5.84,12.88,11.7,25.75a27,27,0,0,0,1.43,2.44c2.13-.74,4.1-1.3,5.95-2.13a6.73,6.73,0,0,0,2.53-2.09c2.45-3.34,5.27-6.45,6.88-10.36a11.85,11.85,0,0,1,4.4-5c2.42-1.73,4.38-3.65,4.61-6.9.05-.77,1-1.59,1.66-2.17a9.39,9.39,0,0,1,2.17-1,6.92,6.92,0,0,0,3.89-4c2.24-6.36,6.83-11.1,11-16.15a11.46,11.46,0,0,1,1.35-1.36c5-4.33,8.57-9.87,12.49-15.1s8-10.75,12.05-16.13c.48-.64.93-1.3,1.44-1.92a5.2,5.2,0,0,0,1-5.8c-1.41-3-.54-5.52,1.55-7.9,2.32-2.64,4.58-5.33,6.68-8.14a40,40,0,0,0,4-6.48,12.53,12.53,0,0,1,3.08-4.15c2.15-1.89,4.11-4,6.1-6.08a4.68,4.68,0,0,0,1.5-3.42c0-1.33-1.14-1.83-2-2.56a2.74,2.74,0,0,1-.43-.83c.19-1,.95-1.18,1.79-1s1.5.54,2.28.73a2.89,2.89,0,0,0,3-1.13,2.11,2.11,0,0,0,0-3c-.77-.76-1.66-1.4-2.54-2.13.36-.61.51-1.12.85-1.39a4.74,4.74,0,0,0,1.87-4.65c-.3-2.4.68-4.31,2.1-6.16,3.1-4.07,6.06-8.24,9.13-12.33a12.11,12.11,0,0,0,2.72-7.53,13,13,0,0,1,5.78-11c3.09-2.26,6.37-4.26,9.59-6.33a3.06,3.06,0,0,1,3.2-.11,23.33,23.33,0,0,1,3.35,1.87c2,1.53,3.9,3.32,6.77,3a1.84,1.84,0,0,1,1.27.59c2.46,2.57,5.94,2.07,8.93,3a2.67,2.67,0,0,0,3.21-1.52,22.9,22.9,0,0,0,1.43-3.54c.27-.75.37-1.56.61-2.32.34-1.06.61-2.25,2-2.38,1.11-.11,2.15.91,2.54,2.45a1.72,1.72,0,0,1-.73,2.09c-.41.24-1,.3-1.29.61s-1,1-.94,1.44a1.91,1.91,0,0,0,1.15,1.33c2.3.61,4.66.86,6.87,2,.85.42,2.15-.08,3.29-.16,1,.81,2,1.63,3,2.39a7.66,7.66,0,0,1,3.26,5.14c.45,3.31,1.52,6.13,4.32,8.22a5.28,5.28,0,0,1,1.67,2.83c1,4.1,1.27,8.24-.48,12.23-.9,2-2,4-3.07,6-.82,1.55-1.65,3.1-2.52,4.63a25.78,25.78,0,0,1-2.5,4.06,15.19,15.19,0,0,0-3.41,5.7c-.6,2.11-2.16,3-4.3,3.17-4.76.28-7.91,3-10.37,6.83-1,1.59-2.18,3.11-3.67,5.2l-1-3.44c-3.57,1.51-4.52,2.94-4.07,6a11.54,11.54,0,0,1,.29,2.34,2.06,2.06,0,0,1-2.82,1.69c-1-.45-1.87-1.29-3.1-.64a6.3,6.3,0,0,0-3.44,3.82c-.71,2.75-1.64,5.54-.58,8.46a6.2,6.2,0,0,1,.32,2.33,2.35,2.35,0,0,1-2.3,2,1.88,1.88,0,0,1-2-1.67c-.17-.88-.22-1.79-.36-2.91-3.75,1.91-6.3,4.25-6.26,8.55a2.87,2.87,0,0,1-.83,2.14,5.11,5.11,0,0,0-2.62,4.73,2.7,2.7,0,0,1-1.33,1.85c-3.44,1.93-4.22,5.23-4,8.63a11,11,0,0,1-2,7.17c-1.61,2.37-3,4.88-4.62,7.26a9.21,9.21,0,0,1-4.16,3.85,4.67,4.67,0,0,0-2.58,3.28c-.29.91-.56,1.84-.88,2.74-.93,2.58-2.07,4.91-4.52,6.57-2.94,2-3.6,5.55-5,8.55C1617.37,485.13,1616.71,486.93,1616,488.7Zm-196.32-92.36h1.54c1.27-.07,2.7,0,3.34-1.35.72-1.54-.71-2.23-1.57-3.09-.22-.23-.46-.44-.7-.64a6.24,6.24,0,0,0-8.85.89,1.55,1.55,0,0,0,.43,2.44C1416.08,395.34,1418.36,395.95,1419.66,396.33Zm31.53,335.54c-.24-.28-.4-.62-.65-.72a1.08,1.08,0,0,0-.89.06,3.85,3.85,0,0,0-1.74,4.11,1.26,1.26,0,0,0,1.1.46A4.27,4.27,0,0,0,1451.19,731.87Zm-16.41,48.24c-.28-.42-.39-.77-.62-.87a.88.88,0,0,0-.82.11,3.93,3.93,0,0,0-.79,1.57c0,.29.38.73.7,1,.12.09.64-.1.78-.3A11,11,0,0,0,1434.77,780.11Zm129.16-227.73c-.1-.28-.18-.78-.31-.79-.4,0-1.09,0-1.17.2a4.55,4.55,0,0,0-.12,1.65c0,.06.34.2.39.16C1563.15,553.22,1563.53,552.8,1563.93,552.39ZM1451.64,762.57l-1.25-.91c-.24.34-.66.68-.67,1s.39.7.6,1.06Zm-30.74,34.89c.16-.21.45-.42.45-.62s-.3-.41-.46-.61l-.66.84Zm96.59-178a6.43,6.43,0,0,0,0,.69,1.4,1.4,0,0,0,.36,0,6.24,6.24,0,0,0,0-.69ZM1493,464.17c.13,0,.32,0,.39-.07s.06-.26.08-.4l-.63.1ZM1454.47,722c0-.14.1-.32,0-.42s-.24-.13-.37-.19l-.09.69Zm-.78,37.17-.15-.37-.48.41c.11.07.23.2.34.2S1453.59,759.22,1453.69,759.14Zm197.75-425.28-.15-.36-.47.4c.11.07.22.2.33.19S1651.34,333.94,1651.44,333.86ZM1490.8,455.91l-.3.13.25.19ZM1321.26,474.3a14.83,14.83,0,0,0-2.73.85,5.62,5.62,0,0,0-3.07,6.39c.16.94.5,1.86.63,2.81a5.07,5.07,0,0,1-1,4.07,1.6,1.6,0,0,1-2.31.47v-3.36a1.82,1.82,0,0,0-3,.79,15,15,0,0,0-.9,3.2c-.9,3.64-2.11,7-5.74,9a10.19,10.19,0,0,0-2.09,2c-1.89,1.88-4,3.13-6.84,2.82a3.14,3.14,0,0,0-1.43.08,28,28,0,0,1-10.19,2.14,3.27,3.27,0,0,0-2.11,1c-1.48,1.6-3.25,1.76-5.26,1.61a10.23,10.23,0,0,0-5.93,1.65c-1.83,1.08-3.52,1.42-5.23-.23a5.81,5.81,0,0,0-4.92-1.39c-5.16.59-10.2-.69-15.28-1.16-2.28-.21-4.47-1.58-6.64-2.55-1.3-.58-2.42-1.68-3.76-2a55,55,0,0,1-9.57-3c-1.91-.91-3.72-.14-5.31,1.19-6.34,5.29-8.56,8.58-11.38,16.75-.78,2.26-1.86,4.42-2.63,6.68a31.62,31.62,0,0,0-1.36,5.54,15.85,15.85,0,0,1-1.35,5c-3.16,6.31-3.75,12.78-.88,19.41,1,2.2,1.65,4.5,2.6,6.7a24.41,24.41,0,0,0,2.29,4.18,47.63,47.63,0,0,1,5.52,9.52,14.69,14.69,0,0,0,4.57,6.08,33,33,0,0,1,6,6.17,2.84,2.84,0,0,0,.64.71c4,2.67,7,6.52,10.47,9.72a15.72,15.72,0,0,0,12.77,4.34,8.65,8.65,0,0,1,7.44,2.52c.46.45,1,.84,1.44,1.27a11.93,11.93,0,0,0,8.22,3.42,17.26,17.26,0,0,1,9,2.74,17.77,17.77,0,0,0,11.45,2.72c2.68-.3,5.4,0,8-1.24a7,7,0,0,1,2.82-.34c1,0,1.93.28,2.87.19a22.91,22.91,0,0,1,10.17,1.73c3.37,1.22,7.2,1.35,10.85,1.59,3.5.23,7,.12,10.32-1.56a5.22,5.22,0,0,1,3.71-.36c4.86,1.74,9.3.13,13.4-1.91,3.84-1.91,7.87-2.57,11.91-3.34a51.2,51.2,0,0,1,7.64-.65,24.57,24.57,0,0,0,7-1.3,18,18,0,0,1,5.16-.76A32.66,32.66,0,0,0,1385,605l1.29-3.1a3.79,3.79,0,0,1,1.37-.33,28.74,28.74,0,0,1,5.14,1.07,11.55,11.55,0,0,0,8.44-.13,103,103,0,0,0,11.9-5.05,11.52,11.52,0,0,1,9-1.08c.75,1,.23,1.67-.24,2.32-.73,1-1.79,1.87-1.59,3.64.91.36,1.91.71,2.89,1.14,1.45.63,2,2,.92,3-1.71,1.65-3.39,3.76-5.49,4.49-4.37,1.5-7.81,4.33-11.52,6.78a22.77,22.77,0,0,1-5.53,2.76,140.78,140.78,0,0,0-19.06,7.85c-3,1.49-6.17,2.63-9.25,4a37.71,37.71,0,0,0-5.19,2.49,74.63,74.63,0,0,1-15.21,7,16.49,16.49,0,0,1-3.68,1c-3,.33-6,.43-9.05.74a10,10,0,0,0-3.22.85,30.77,30.77,0,0,1-12.6,2.54c-1.55,0-3.21-.21-4.57,1.58.58.4,1,1,1.51,1,3.19.19,6.38.29,9.57.38,4.14.11,8.32-.53,12.37.87,1.18.41,2.13-.2,3.12-.82a10.43,10.43,0,0,1,3-1.33,1.85,1.85,0,0,1,1.54.82,2,2,0,0,1-.11,1.75,4.16,4.16,0,0,1-1.85,1.42,38,38,0,0,1-4.6,1.31,161.52,161.52,0,0,1-22.75,3.41c-8.13.69-16.26,1.31-24.42,1.34-2.4,0-4.79.31-7.19.35-3.19.05-6.39,0-9.59-.05a19.42,19.42,0,0,0-2.39-.18c-5.66.65-11.15-.63-16.68-1.36-.79-.1-1.58-.25-2.38-.29-2.71-.13-3.42.36-4.67,3.08-.24.53-.52,1-.89,1.77-2-4.84-3.22-5.53-7.67-3.86a12.22,12.22,0,0,1-8.41.19c-3.35-1.07-6.76-2-10.17-2.83a63.76,63.76,0,0,1-18.83-8.21,44.92,44.92,0,0,0-4.09-2.5c-11.58-5.77-21.44-13.88-30.84-22.62a18.07,18.07,0,0,1-5.09-7.43,23.68,23.68,0,0,0-2.51-4.62c-1.35-2.17-2.9-4.23-4.17-6.45-1.1-1.93-2.45-3.94-2.78-6.06-.67-4.33-2.49-8.24-3.79-12.34s-3.32-7.62-7.2-9.77a3.89,3.89,0,0,1-2.08-3c-.89-6.16-2.33-12.25-2.07-18.57a45.68,45.68,0,0,0-.52-8.6,30.08,30.08,0,0,0-1.89-6.39,10,10,0,0,1-1-4.62c.63-6.85,1.15-13.71,1.92-20.54a66.66,66.66,0,0,1,4.11-16.23,124.78,124.78,0,0,1,11.47-23.71c2.08-3.22,3.79-6.71,6.06-9.79,6.38-8.62,13-17.14,21-24.31,7.6-6.83,15.65-13.2,23.79-19.39a216.71,216.71,0,0,1,31.42-19.37c10.5-5.45,21.14-10.69,32.4-14.44a259,259,0,0,1,33.78-9.17c2-.38,4.1-.63,6.16-.9a52,52,0,0,0,6.18-.77c6.28-1.62,12.45-.76,18.48.92,4.9,1.36,9.8,2.78,14.13,5.78,5,3.48,8.5,8.19,11.58,13.26,1.4,2.3,2.38,4.86,3.6,7.38-1,2.16-2.7,4-2.48,6.62.08.93-1.06,1.9-1.43,2.93-1.76,4.91-5.4,8.62-8.09,12.94a24.85,24.85,0,0,0-1.51,2.45,16.21,16.21,0,0,1-3.83,4.85,46.78,46.78,0,0,0-5.13,5.69,11.1,11.1,0,0,1-6.52,4.58,10.42,10.42,0,0,0-7.51,5.43,6.12,6.12,0,0,1-1.56,1.8,6.68,6.68,0,0,0-2.24,4.11,24.91,24.91,0,0,1-1.26,4.11c-1,2.55-3.19,3.89-5.53,5-3.4,1.67-4.83,4.51-4.67,8.21a4.49,4.49,0,0,0,.45,1.27c2.39,1.16,3.65-2,6.15-1.32l.19,2.6ZM1237.12,479c5.39-.84,10.74-1.75,15.72-4.09,10.79-5.06,20.69-11.41,28.95-20.13,2-2.09,4-4.12,6.1-6.1,3.5-3.33,6.22-7.28,9.08-11.13a9.18,9.18,0,0,0,.94-1.66,1.49,1.49,0,0,0-1.67-2.12,7.42,7.42,0,0,0-2.34.45c-4.93,2.26-10,4.35-14.69,7s-9.22,5.74-13.74,8.75c-3.19,2.12-6.32,4.35-9.35,6.68-2.4,1.84-4.61,4-6.94,5.89a103.61,103.61,0,0,0-13.23,12.48,6,6,0,0,0-1.32,1.94,1.88,1.88,0,0,0,.68,1.55A5.2,5.2,0,0,0,1237.12,479Zm60.76-72.65c.18.27.3.7.5.73a4.07,4.07,0,0,0,3.85-1.35,1.37,1.37,0,0,0,.18-1.28,1.42,1.42,0,0,0-1.2-.5A4.34,4.34,0,0,0,1297.89,406.33Zm3.5,78a1.22,1.22,0,0,0-1.62-1.11,2.3,2.3,0,0,0-1.57,2.54,1.35,1.35,0,0,0,.89.9C1300.29,486.89,1301.31,485.78,1301.38,484.37Zm9.45-9.94c-.2-.19-.4-.51-.6-.52s-.41.31-.62.49l.81.73ZM1288,492.34l.37-.6a2.42,2.42,0,0,0-.33-.19,6.29,6.29,0,0,0-.38.58Zm-91.76,46.92-.1-.42c-.14,0-.35,0-.41.12s0,.27.08.41Zm305.26,140.92c-1.11-.48-1.91-1.11-2.72-1.12a3.74,3.74,0,0,0-3.38,2.25,5.59,5.59,0,0,0-.29,5C1496.91,684,1499.7,682.85,1501.51,680.18Zm-81.15-242c-.47-.44-1.14-.56-1.79.39a32.5,32.5,0,0,0,3.36,9.32C1423.39,443.3,1422.86,440.54,1420.35,438.18Zm263.81-43.85c-.16,1.26.53,2.51,1.44,2.63s1.89-.65,2.33-1.95a2.91,2.91,0,0,0,.17-1.81,5.13,5.13,0,0,0-1.21-1.42A2.74,2.74,0,0,0,1684.17,394.32ZM1428.76,407.1c-.8,2.49-2,4.87-2.51,7.92,1-.11,1.92,0,2.36-.32a2.74,2.74,0,0,0,.88-2c-.09-1.86-.42-3.71-.66-5.57Zm81,257a1.42,1.42,0,0,0-.61-1.09,1.19,1.19,0,0,0-1.13.33,6.76,6.76,0,0,0-.44,2.11c0,.16.41.36.64.53C1509.06,666,1509.81,665.2,1509.79,664.07ZM1374,406.28a1.73,1.73,0,0,0-2.48.25c-.17.19-.27.69-.15.83.27.32.73.73,1.06.69a9.64,9.64,0,0,0,2-.67C1374.22,406.81,1374.2,406.43,1374,406.28ZM943.09,600.68a1,1,0,0,0-.45.72,1.5,1.5,0,0,0,2.07,1.16c.33-.14.51-.64.69-.89A1.58,1.58,0,0,0,943.09,600.68Zm565.8,50.93c-.08.18.39.8.71.92.8.28,1.68-.43,1.49-1.13a10.29,10.29,0,0,0-.7-1.48C1509.57,650.81,1509.09,651.15,1508.9,651.61Zm-27.52,59a1.4,1.4,0,0,0-.38,2.28,1.19,1.19,0,0,0,1.15-.12c.28-.26.31-.8.55-1.54C1482.24,711,1481.68,710.53,1481.38,710.65ZM503,579.42a14.6,14.6,0,0,0-2.2.46s0,.68.14.78a1.77,1.77,0,0,0,2.47-.53C503.22,579.88,503.06,579.41,503,579.42ZM1587.58,423.59c-.11.18.08.53.14.81l1.1-.4-.46-.71C1588.09,423.38,1587.7,423.4,1587.58,423.59Zm31.69,66.53c-.86-1.1-2.27-.84-3.3-1.43C1616.8,491.32,1616.86,491.35,1619.27,490.12Zm-259.9,157.42a12.66,12.66,0,0,0-1.65.33c.12.26.21.72.36.75a10.59,10.59,0,0,0,1.77,0C1359.59,648,1359.46,647.53,1359.37,647.54Zm63.22-218.82c-.08.27-.28.58-.22.81s.39.44.59.66l.64-.74ZM1543.29,613a3.73,3.73,0,0,0-.46.64c0,.08.17.38.22.37a3.93,3.93,0,0,0,.71-.27Zm6.84-18.55c0,.11.08.25.13.38l.49-.4-.33-.24C1550.32,594.32,1550.16,594.39,1550.14,594.49Zm126-185.11a4.23,4.23,0,0,0-.47.63c0,.06.18.35.22.34a4.54,4.54,0,0,0,.71-.3Zm-9.63,13.57c0-.11-.14-.22-.21-.33l-.4.52.38.14C1666.32,423.16,1666.47,423.06,1666.48,422.95Zm-215,114a4.06,4.06,0,0,0-.21.73c0,.1.15.22.23.33l.48-.48Zm60.4,105.48-.45.39c.11.07.22.19.32.18s.19-.15.28-.23ZM1369.43,417.13l-.27-.11,0,.3Zm-5.86,5.67.48.27c0-.12.11-.25.08-.34s-.19-.12-.31-.19Zm62.37,13.76-.15-.23-.12.25Zm110.06,170,0,.38.49-.13ZM1418.21,417.43l.25-.07-.19-.19Zm-97,56.87.82,1,.15-.15-1-.83Z" transform="translate(-248.52 -199.88)" fill="#7ececc"/></svg>